<?xml version="1.0" encoding="utf-8"?>
<!-- Generator: Adobe Illustrator 25.2.0, SVG Export Plug-In . SVG Version: 6.00 Build 0)  -->
<svg version="1.1" id="Layer_1" xmlns="http://www.w3.org/2000/svg" xmlns:xlink="http://www.w3.org/1999/xlink" x="0px" y="0px"
	 viewBox="0 0 61 80" style="enable-background:new 0 0 61 80;" xml:space="preserve">
<style type="text/css">
	.st0{fill:#4859F0;}
</style>
<g>
	<path class="st0" d="M39.8,68l-16.6,4.4c-0.9,0.2-1.6,0.8-2.1,1.6c-0.5,0.8-0.6,1.7-0.3,2.6c0.4,1.5,1.8,2.5,3.3,2.5
		c0.3,0,0.6,0,0.9-0.1l16.6-4.4c0.9-0.2,1.6-0.8,2.1-1.6c0.5-0.8,0.6-1.7,0.3-2.6C43.5,68.6,41.6,67.5,39.8,68z"/>
	<path class="st0" d="M55.9,15.1C48.9,3.7,35.3-1.7,22.6,1.9C11.5,5.2,4.3,12.7,1.7,23.7c-2.5,10.8,0.4,20.5,8.8,28.7
		c1.9,1.9,3.4,4,4.3,5.9c1,2.3,1.8,4,5.3,3.1c1.8-0.4,3.6-0.9,5.3-1.4c1.7-0.5,3.5-0.9,5.2-1.4c2.3-0.6,3.4-2,3.4-4.4
		c-0.1-7.6,0-15.4,0-22c0-3.8-2.4-4.3-3.5-4.3c-1,0-1.9,0.3-2.5,0.9c-0.7,0.7-1.1,1.8-1.1,3.3c0,3.4,0,6.8,0,10.2l0,4.1
		c0,3.3,0,5.3-0.7,6.1c-0.6,0.7-2.4,1-5.2,1.4l-2.3-2.6c-1.8-2.1-3.6-4.1-5.3-6.1C9.2,40.2,7.3,34,8,27.6c0.8-6.2,4-11.7,9.3-15.4
		c7.9-5.6,16.2-6,24.8-1.2c7.7,4.3,12.1,13.2,10.9,22.1c-0.7,5.4-3.2,10.2-7.8,14.6c-2.7,2.6-5.3,5.5-6.2,9.6
		c-0.3,1.2-0.9,1.8-2.2,2.1l0,0c-1.2,0.1-3.6,0.8-9.1,2.3c-4.5,1.2-9,2.5-9,2.5c-0.9,0.2-1.6,0.8-2.1,1.6c-0.5,0.8-0.6,1.7-0.3,2.6
		l0,0.2c0.4,1.5,1.8,2.5,3.3,2.5c0.3,0,0.6,0,0.9-0.1c2.2-0.6,21.1-5.6,21.3-5.7c2.4-0.7,3.9-2.5,3.9-5c0.1-2.4,1-4.4,3.1-6.4
		c1-1,2.2-2.1,3.3-3.3C61.3,41,62.8,26.4,55.9,15.1z"/>
	<path class="st0" d="M30.6,18.4C30.5,18.4,30.5,18.4,30.6,18.4c-2.5,0-4.2,1.6-4.3,4.1c0,1.2,0.4,2.3,1.1,3
		c0.8,0.8,1.9,1.3,3.1,1.3c0,0,0.1,0,0.1,0c2.4,0,4-1.6,4.2-4.2l0-0.1l0-0.1C34.5,20,33,18.5,30.6,18.4z"/>
</g>
</svg>
