<?xml version="1.0" encoding="utf-8"?>
<!-- Generator: Adobe Illustrator 25.2.0, SVG Export Plug-In . SVG Version: 6.00 Build 0)  -->
<svg version="1.1" id="Layer_1" xmlns="http://www.w3.org/2000/svg" xmlns:xlink="http://www.w3.org/1999/xlink" x="0px" y="0px"
	 viewBox="0 0 86 82" style="enable-background:new 0 0 86 82;" xml:space="preserve">
<style type="text/css">
	.st0{fill:#4859F0;}
</style>
<path class="st0" d="M82.8,38.3c-1.4-1.8-3.3-3.1-5.5-3.8c-0.1-9-3.7-17.4-10.1-23.8C60.8,4.3,52.1,0.8,42.9,0.8S25.1,4.3,18.6,10.8
	c-6.4,6.4-9.9,14.8-10.1,23.8c-2.2,0.7-4.1,2-5.5,3.7c-1.5,1.9-2.3,4.3-2.3,6.8v7.3c0,2.4,0.8,4.9,2.3,6.8c1.5,1.9,3.6,3.3,6,3.9
	l6.8,1.7c0.4,0.1,0.9,0.2,1.4,0.2c0.4,0,0.8,0,1.2-0.1c0.8-0.2,1.6-0.5,2.3-1.1c0.7-0.5,1.2-1.2,1.6-2c0.4-0.8,0.6-1.6,0.6-2.5V38.1
	c0-0.8-0.2-1.7-0.6-2.4c-0.4-0.8-0.9-1.4-1.6-2c-0.7-0.5-1.5-0.9-2.3-1.1c-0.8-0.2-1.7-0.2-2.5,0l-0.8,0.2
	c0.5-6.6,3.3-12.8,8.1-17.5c5.3-5.3,12.3-8.2,19.7-8.2s14.5,2.9,19.7,8.2c4.7,4.7,7.6,10.9,8.1,17.5L70,32.7c-0.8-0.2-1.7-0.2-2.5,0
	c-0.8,0.2-1.6,0.5-2.3,1.1c-0.7,0.5-1.2,1.2-1.6,1.9c-0.4,0.8-0.6,1.6-0.6,2.5v21.3c0,0.8,0.2,1.7,0.6,2.5c0.4,0.8,0.9,1.4,1.6,1.9
	c0.7,0.5,1.5,0.9,2.3,1.1c0.8,0.2,1.7,0.2,2.5,0l0.8-0.2c-0.1,1.1-0.5,2.2-1.3,2.9c-0.9,0.9-2,1.3-3.2,1.3h-9
	c-0.5-1.2-1.1-2.3-2.1-3.2c-1.7-1.7-4-2.7-6.4-2.7H37.1c-2.4,0-4.7,0.9-6.4,2.7c-1.7,1.7-2.7,4-2.7,6.4c0,2.4,0.9,4.7,2.7,6.4
	c1.7,1.7,4,2.7,6.4,2.7h11.7c2.4,0,4.7-0.9,6.4-2.7c0.9-0.9,1.6-2,2.1-3.2h9c2.9,0,5.7-1.1,7.8-3.2c2.1-2.1,3.2-4.9,3.2-7.8V63
	c2.1-0.7,4.1-2,5.5-3.8c1.5-1.9,2.3-4.3,2.3-6.8v-7.3C85.1,42.7,84.3,40.3,82.8,38.3z M16.3,39.3v18.9l-5.6-1.4
	c-1-0.2-1.9-0.8-2.5-1.6c-0.6-0.8-1-1.8-1-2.8v-7.3c0-1,0.3-2,1-2.8c0.6-0.8,1.5-1.4,2.5-1.6L16.3,39.3z M50.6,74
	c-0.5,0.5-1.1,0.8-1.8,0.8H37.1c-0.7,0-1.3-0.3-1.8-0.8c-0.5-0.5-0.8-1.2-0.8-1.8s0.3-1.4,0.8-1.8c0.5-0.5,1.1-0.8,1.8-0.8h11.7
	c0.7,0,1.4,0.3,1.8,0.8c0.5,0.5,0.8,1.2,0.8,1.8C51.4,72.8,51.1,73.5,50.6,74z M78.6,52.4c0,1-0.3,2-1,2.8c-0.6,0.8-1.5,1.4-2.5,1.6
	l-5.6,1.4V39.3l5.6,1.4c1,0.2,1.9,0.8,2.5,1.6c0.6,0.8,1,1.8,1,2.8V52.4z"/>
</svg>
