<?xml version="1.0" encoding="utf-8"?>
<!-- Generator: Adobe Illustrator 25.2.0, SVG Export Plug-In . SVG Version: 6.00 Build 0)  -->
<svg version="1.1" id="Layer_1" xmlns="http://www.w3.org/2000/svg" xmlns:xlink="http://www.w3.org/1999/xlink" x="0px" y="0px"
	 viewBox="0 0 29 29" style="enable-background:new 0 0 29 29;" xml:space="preserve">
<style type="text/css">
	.st0{fill:#9B9591;}
</style>
<path class="st0" d="M9.4,28.1c-1.4,0-2.5-1.1-2.5-2.5s1.1-2.5,2.5-2.5s2.5,1.1,2.5,2.5S10.8,28.1,9.4,28.1z"/>
<path class="st0" d="M23.1,28.1c-1.4,0-2.5-1.1-2.5-2.5s1.1-2.5,2.5-2.5s2.5,1.1,2.5,2.5S24.5,28.1,23.1,28.1z"/>
<path class="st0" d="M10.2,20.7c-0.8,0-1.6-0.3-2.3-0.8c-0.7-0.5-1.2-1.3-1.3-2.2l-2-9.2c0,0,0-0.1,0-0.1L3.5,3.2H2
	C1.3,3.2,0.8,2.7,0.8,2S1.3,0.8,2,0.8h2.5c0.6,0,1.1,0.4,1.2,1L6.8,7H27c0.4,0,0.7,0.2,1,0.5s0.3,0.7,0.2,1.1l-2.1,9.3
	c-0.2,0.8-0.6,1.6-1.3,2.1c-0.7,0.5-1.5,0.8-2.3,0.8L10.2,20.7C10.3,20.7,10.3,20.7,10.2,20.7z M7.4,9.5L9,17.2
	c0.1,0.3,0.2,0.5,0.4,0.7c0.2,0.2,0.5,0.3,0.8,0.3h12.2c0.3,0,0.6-0.1,0.8-0.3c0.2-0.2,0.4-0.4,0.4-0.7l1.7-7.8H7.4z"/>
</svg>
