<svg viewBox="0 0 80 80" fill="none" xmlns="http://www.w3.org/2000/svg">
    <path
            d="M3.49691e-06 40C4.42435e-06 29.3913 4.21428 19.2172 11.7157 11.7157C19.2172 4.21427 29.3913 -4.42435e-06 40 -3.49691e-06C50.6087 -2.56947e-06 60.7828 4.21427 68.2843 11.7157C75.7857 19.2172 80 29.3913 80 40C80 50.6087 75.7857 60.7828 68.2843 68.2843C60.7828 75.7857 50.6087 80 40 80C29.3913 80 19.2172 75.7857 11.7157 68.2843C4.21427 60.7828 2.56947e-06 50.6087 3.49691e-06 40ZM37.5 57.5C37.5 58.163 37.7634 58.7989 38.2322 59.2678C38.7011 59.7366 39.337 60 40 60C40.663 60 41.2989 59.7366 41.7678 59.2678C42.2366 58.7989 42.5 58.163 42.5 57.5L42.5 28.535L53.23 39.27C53.6994 39.7394 54.3361 40.0032 55 40.0032C55.6639 40.0032 56.3006 39.7394 56.77 39.27C57.2394 38.8006 57.5032 38.1639 57.5032 37.5C57.5032 36.8361 57.2394 36.1994 56.77 35.73L41.77 20.73C41.5378 20.4972 41.2619 20.3125 40.9582 20.1864C40.6544 20.0604 40.3288 19.9955 40 19.9955C39.6712 19.9955 39.3456 20.0604 39.0418 20.1864C38.7381 20.3125 38.4622 20.4972 38.23 20.73L23.23 35.73C22.7606 36.1994 22.4968 36.8361 22.4968 37.5C22.4968 38.1639 22.7606 38.8006 23.23 39.27C23.6994 39.7394 24.3361 40.0032 25 40.0032C25.6639 40.0032 26.3006 39.7394 26.77 39.27L37.5 28.535L37.5 57.5Z"
            fill="#050505"
    />
</svg>