<?xml version="1.0" encoding="utf-8"?>
<!-- Generator: Adobe Illustrator 25.2.0, SVG Export Plug-In . SVG Version: 6.00 Build 0)  -->
<svg version="1.1" id="Layer_1" xmlns="http://www.w3.org/2000/svg" xmlns:xlink="http://www.w3.org/1999/xlink" x="0px" y="0px"
	 viewBox="0 0 30 30" style="enable-background:new 0 0 30 30;" xml:space="preserve">
<style type="text/css">
	.st0{fill:#9B9591;}
</style>
<path class="st0" d="M15,30C6.7,30,0,23.3,0,15S6.7,0,15,0s15,6.7,15,15S23.3,30,15,30z M15,2C7.8,2,2,7.8,2,15s5.8,13,13,13
	s13-5.8,13-13S22.2,2,15,2z"/>
<path class="st0" d="M15,20c-1.6,0-3.1-0.8-4.2-2.3C9.7,16.4,9,14.6,9,13c0-1.8,0.4-3.2,1.3-4.2C11.3,7.6,12.9,7,15,7
	s3.7,0.6,4.7,1.8c0.9,1,1.3,2.4,1.3,4.2c0,1.6-0.7,3.4-1.8,4.7C18.1,19.2,16.6,20,15,20z M15,9c-1.5,0-2.6,0.4-3.2,1.1
	C11.3,10.7,11,11.7,11,13c0,1.2,0.5,2.5,1.3,3.5S14.1,18,15,18s1.9-0.6,2.7-1.5c0.8-1,1.3-2.3,1.3-3.5c0-1.3-0.3-2.3-0.8-2.9
	C17.6,9.4,16.5,9,15,9z"/>
<path class="st0" d="M7.9,26.4l-1.8-0.8C6.2,25.4,8.7,20,15,20s8.8,5.4,8.9,5.6l-1.8,0.8C22,26.2,20,22,15,22S8,26.2,7.9,26.4z"/>
</svg>
